<?xml version="1.0" encoding="UTF-8" standalone="no"?>
<!DOCTYPE svg PUBLIC "-//W3C//DTD SVG 1.1//EN" "http://www.w3.org/Graphics/SVG/1.1/DTD/svg11.dtd">
<!-- Created with Vectornator (http://vectornator.io/) -->
<svg height="100%" stroke-miterlimit="10" style="fill-rule:nonzero;clip-rule:evenodd;stroke-linecap:round;stroke-linejoin:round;" version="1.1" viewBox="0 0 24 24" width="100%" xml:space="preserve" xmlns="http://www.w3.org/2000/svg" xmlns:xlink="http://www.w3.org/1999/xlink">
<defs/>
<g id="Untitled">
<path d="M7.172 2.757L10.414 6L13.585 6L16.828 2.758C17.2188 2.36749 17.8521 2.3676 18.2428 2.75824C18.6334 3.14889 18.6335 3.78222 18.243 4.173L16.414 6L18.5 6C20.433 6 22 7.567 22 9.5L22 17.5C22 19.433 20.433 21 18.5 21L5.5 21C3.567 21 2 19.433 2 17.5L2 9.5C2 7.567 3.567 6 5.5 6L7.585 6L5.757 4.171C5.36649 3.78022 5.3666 3.14689 5.75724 2.75624C6.14789 2.3656 6.78122 2.36549 7.172 2.756L7.172 2.757ZM18.5 8L5.5 8C4.72738 8.00004 4.08117 8.58695 4.007 9.356L4 9.5L4 17.5C4.00004 18.2726 4.58695 18.9188 5.356 18.993L5.5 19L18.5 19C19.2726 19 19.9188 18.4131 19.993 17.644L20 17.5L20 9.5C20 8.67157 19.3284 8 18.5 8ZM8 11C8.55228 11 9 11.4477 9 12L9 14C9 14.5523 8.55228 15 8 15C7.44772 15 7 14.5523 7 14L7 12C7 11.4477 7.44772 11 8 11ZM16 11C16.5523 11 17 11.4477 17 12L17 14C17 14.5523 16.5523 15 16 15C15.4477 15 15 14.5523 15 14L15 12C15 11.4477 15.4477 11 16 11Z" fill="#ffffff" fill-rule="nonzero" opacity="1" stroke="none"/>
</g>
</svg>
