<?xml version="1.0" encoding="UTF-8" standalone="no"?>
<!DOCTYPE svg PUBLIC "-//W3C//DTD SVG 1.1//EN" "http://www.w3.org/Graphics/SVG/1.1/DTD/svg11.dtd">
<!-- Created with Vectornator (http://vectornator.io/) -->
<svg height="100%" stroke-miterlimit="10" style="fill-rule:nonzero;clip-rule:evenodd;stroke-linecap:round;stroke-linejoin:round;" version="1.1" viewBox="0 0 24 24" width="100%" xml:space="preserve" xmlns="http://www.w3.org/2000/svg" xmlns:xlink="http://www.w3.org/1999/xlink">
<defs/>
<g id="Untitled">
<path d="M12 2C6.477 2 2 6.477 2 12C2 16.991 5.657 21.128 10.438 21.879L10.438 14.89L7.898 14.89L7.898 12L10.438 12L10.438 9.797C10.438 7.291 11.93 5.907 14.215 5.907C15.309 5.907 16.453 6.102 16.453 6.102L16.453 8.562L15.193 8.562C13.95 8.562 13.563 9.333 13.563 10.124L13.563 12L16.336 12L15.893 14.89L13.563 14.89L13.563 21.879C18.343 21.129 22 16.99 22 12C22 6.477 17.523 2 12 2Z" fill="#000" fill-rule="nonzero" opacity="1" stroke="none"/>
</g>
</svg>
