<?xml version="1.0" encoding="UTF-8" standalone="no"?>
<!DOCTYPE svg PUBLIC "-//W3C//DTD SVG 1.1//EN" "http://www.w3.org/Graphics/SVG/1.1/DTD/svg11.dtd">
<!-- Created with Vectornator (http://vectornator.io/) -->
<svg height="100%" stroke-miterlimit="10" style="fill-rule:nonzero;clip-rule:evenodd;stroke-linecap:round;stroke-linejoin:round;" version="1.1" viewBox="0 0 200 200" width="100%" xml:space="preserve" xmlns="http://www.w3.org/2000/svg" xmlns:xlink="http://www.w3.org/1999/xlink">
<defs/>
<g id="图层-1" visibility="hidden">
<g opacity="1">
<path d="M58.6369 82.6037L58.794 82.6037L64.998 48.8352L75.8353 48.8352L65.6262 89.6716L51.4906 89.6716L41.2815 48.8352L52.4329 48.8352L58.6369 82.6037Z" fill="#5865f2" fill-rule="nonzero" opacity="1" stroke="none"/>
<path d="M45.5493 51.0434C48.1909 61.6099 52.6483 79.3764 55.204 89.5992C58.668 89.5992 63.6033 89.5992 67.0673 89.5992C69.6221 79.3802 74.0799 61.612 76.722 51.0434C74.2541 51.0434 71.5099 51.0434 69.2128 51.0434C67.5638 60.0191 64.6233 76.0259 63.0918 84.3617C62.9424 85.1748 62.2148 85.7499 61.3881 85.7499C61.3477 85.7499 61.3022 85.7499 61.2619 85.7499C60.4351 85.7499 59.7075 85.1748 59.5581 84.3617C58.0266 76.0259 55.0861 60.0191 53.4371 51.0434C51.034 51.0434 48.1337 51.0434 45.5493 51.0434Z" fill="#fee75c" fill-rule="nonzero" opacity="1" stroke="none"/>
<path d="M83.2958 50.7985C85.3377 50.0655 87.8245 49.4242 90.7563 48.8744C93.6882 48.3247 96.0441 48.0499 97.8242 48.0499C103.636 48.0499 107.706 49.2278 110.036 51.5838C112.366 53.9397 113.53 58.1281 113.53 64.1488L113.53 89.6716L103.557 89.6716L103.4 84.567L103.243 84.567C100.677 88.4936 97.1697 90.4569 92.7196 90.4569C89.1595 90.4569 86.3717 89.3574 84.356 87.1586C82.3404 84.9597 81.3325 81.8708 81.3325 77.8918C81.3325 73.2847 82.9948 69.7115 86.3193 67.1723C89.6438 64.6331 94.5258 63.3635 100.965 63.3635L102.929 63.3635L102.929 62.5782C102.929 60.484 102.51 59.005 101.672 58.1412C100.835 57.2773 99.421 56.8454 97.4315 56.8454C95.7562 56.8454 93.4918 57.1464 90.6385 57.7485C87.7852 58.3506 85.3377 59.0443 83.2958 59.8296L83.2958 50.7985ZM102.929 70.4314L100.965 70.4314C97.8765 70.4314 95.5337 71.0334 93.9369 72.2376C92.3401 73.4417 91.5416 75.0647 91.5416 77.1065C91.5416 78.7295 91.9343 79.986 92.7196 80.876C93.5049 81.7661 94.552 82.2111 95.8609 82.2111C100.573 82.2111 102.929 78.808 102.929 72.002L102.929 70.4314Z" fill="#5865f2" fill-rule="nonzero" opacity="1" stroke="none"/>
<path d="M101.521 50.223C99.8625 50.223 97.5332 50.4897 94.5801 51.0434C92.0858 51.5111 90.1382 52.0377 88.3329 52.621C88.3329 54.3964 88.3329 56.3941 88.3329 58.3633C90.0472 57.8149 91.719 57.2297 93.8229 56.7857C96.8249 56.1523 99.2208 55.8392 101.143 55.8392C103.39 55.8392 105.409 56.34 106.759 57.7323C108.112 59.1272 108.526 61.1483 108.526 63.4746C108.526 63.6766 108.526 64.093 108.526 64.295C108.526 65.2411 107.705 65.9988 106.759 65.9987C106.254 65.9987 105.244 65.9987 104.74 65.9987C98.3187 65.9987 93.7197 67.2497 90.7309 69.5325C87.7514 71.8082 86.3136 74.8928 86.3137 79.1872C86.3137 83.0024 87.2589 85.7198 88.964 87.5799C90.6687 89.4396 92.9839 90.4195 96.2839 90.4195C100.294 90.4195 103.325 88.7333 105.686 85.1189C106.003 84.6346 106.559 84.3617 107.138 84.3617C107.178 84.3617 107.223 84.3617 107.264 84.3617C108.189 84.3617 108.939 85.0771 108.968 86.0023C108.995 86.893 109.054 88.32 109.094 89.5992C111.284 89.5992 113.767 89.5992 115.972 89.5992C115.972 82.7175 115.972 71.1889 115.972 65.0522C115.972 59.0221 114.761 55.2806 112.88 53.3782C110.996 51.4732 107.328 50.2231 101.521 50.223ZM104.74 69.848C105.244 69.848 106.254 69.848 106.759 69.848C107.705 69.848 108.526 70.6056 108.526 71.5518C108.526 71.9556 108.526 72.7255 108.526 73.1294C108.526 76.8002 107.896 79.8379 106.38 82.0269C104.821 84.279 102.36 85.3713 99.5021 85.3713C97.7447 85.3713 96.1688 84.715 95.0218 83.4151C93.8551 82.0928 93.3812 80.3611 93.3812 78.43C93.3812 75.8371 94.4867 73.6022 96.5363 72.0566C98.6083 70.4941 101.363 69.848 104.74 69.848Z" fill="#fee75c" fill-rule="nonzero" opacity="1" stroke="none"/>
<path d="M138.268 56.8454C134.446 56.8454 132.535 57.971 132.535 60.2223C132.535 61.374 132.915 62.2902 133.674 62.9709C134.433 63.6515 135.703 64.175 137.483 64.5415C143.189 65.6409 147.103 67.2116 149.223 69.2534C151.343 71.2952 152.404 74.3056 152.404 78.2845C152.404 82.1587 151.082 85.156 148.438 87.2764C145.794 89.3967 142.011 90.4569 137.09 90.4569C131.488 90.4569 126.514 89.5407 122.169 87.7083L122.169 78.2845C126.724 80.5357 131.043 81.6614 135.127 81.6614C137.483 81.6614 139.158 81.3603 140.153 80.7582C141.147 80.1562 141.645 79.2007 141.645 77.8918C141.645 76.74 141.278 75.85 140.545 75.2218C139.812 74.5935 138.399 74.0438 136.305 73.5726C131.122 72.4732 127.404 70.8371 125.153 68.6644C122.902 66.4917 121.776 63.5468 121.776 59.8296C121.776 56.1124 123.059 53.2199 125.624 51.1519C128.19 49.0839 132.012 48.0499 137.09 48.0499C142.273 48.0499 146.985 48.8352 151.226 50.4058L151.226 59.4369C146.671 57.7092 142.352 56.8454 138.268 56.8454Z" fill="#5865f2" fill-rule="nonzero" opacity="1" stroke="none"/>
<path d="M141.907 50.223C136.891 50.223 133.38 51.2894 131.18 53.0627C128.971 54.8429 127.898 57.2303 127.898 60.635C127.898 64.1085 128.93 66.5925 130.864 68.4598C132.816 70.3434 136.286 71.9675 141.465 73.0663C143.716 73.5726 145.413 74.151 146.577 75.1486C147.761 76.1636 148.344 77.6277 148.344 79.1872C148.344 80.999 147.519 82.6523 145.946 83.6044C144.44 84.5159 142.422 84.8034 139.888 84.8034C136.144 84.8034 132.261 83.7508 128.277 82.09C128.277 84.1442 128.277 86.1946 128.277 88.0216C132.278 89.5504 136.746 90.4195 141.907 90.4195C146.742 90.4195 150.206 89.3632 152.508 87.5168C154.789 85.6876 155.979 83.2017 155.979 79.6289C155.979 75.8258 154.953 73.2372 153.203 71.5518C151.443 69.8573 147.786 68.2429 142.033 67.1346C142.026 67.1332 141.977 67.136 141.97 67.1346C140.001 66.7292 138.388 66.1465 137.238 65.1153C136.068 64.0671 135.534 62.5932 135.534 61.0136C135.534 59.3126 136.388 57.847 137.869 56.975C139.273 56.1478 140.995 55.8392 143.106 55.8392C146.833 55.8392 150.771 56.6243 154.78 57.9216C154.78 55.9799 154.78 53.9984 154.78 52.2423C150.9 50.9469 146.641 50.223 141.907 50.223Z" fill="#fee75c" fill-rule="nonzero" opacity="1" stroke="none"/>
<path d="M46.9684 112.116L65.8159 112.116L65.8159 144.55L73.6691 144.55L73.6691 152.953L44.6124 152.953L44.6124 144.55L54.8215 144.55L54.8215 120.519L46.9684 120.519L46.9684 112.116ZM53.2509 103.478L53.2509 93.2688L65.8159 93.2688L65.8159 103.478L53.2509 103.478Z" fill="#5865f2" fill-rule="nonzero" opacity="1" stroke="none"/>
<path d="M79.9516 132.535C79.9516 118.399 85.7106 111.331 97.2286 111.331C108.747 111.331 114.505 118.399 114.505 132.535C114.505 146.67 108.747 153.738 97.2286 153.738C85.7106 153.738 79.9516 146.67 79.9516 132.535ZM92.3596 142.744C93.302 144.471 94.925 145.335 97.2286 145.335C99.5321 145.335 101.155 144.458 102.098 142.704C103.04 140.95 103.511 137.561 103.511 132.535C103.511 127.509 103.04 124.119 102.098 122.365C101.155 120.611 99.5321 119.734 97.2286 119.734C94.925 119.734 93.302 120.611 92.3596 122.365C91.4172 124.119 90.946 127.509 90.946 132.535C90.946 137.561 91.4172 140.964 92.3596 142.744Z" fill="#5865f2" fill-rule="nonzero" opacity="1" stroke="none"/>
<path d="M120.788 112.116L131.154 112.116L131.311 117.614L131.468 117.614C134.034 113.425 137.411 111.331 141.599 111.331C145.735 111.331 148.667 112.574 150.394 115.061C152.122 117.548 152.986 122.064 152.986 128.608L152.986 152.953L142.384 152.953L142.384 130.179C142.384 126.304 142.057 123.739 141.403 122.482C140.748 121.226 139.505 120.598 137.672 120.598C135.84 120.598 134.361 121.736 133.235 124.014C132.11 126.291 131.547 129.734 131.547 134.341L131.547 152.953L120.788 152.953L120.788 112.116Z" fill="#5865f2" fill-rule="nonzero" opacity="1" stroke="none"/>
</g>
<path d="M148.629 10.2177C145.059 10.2177 141.488 11.5544 138.764 14.2229L138.11 14.8553C137.751 15.3091 137.42 15.7737 136.995 16.1903L112.807 39.8933L156.433 39.8933C161.596 39.8933 165.788 43.9443 165.788 48.9342L165.788 81.842L186.583 61.4649C187.235 60.8262 187.93 60.2644 188.668 59.7785C192.493 54.4466 192.005 47.049 187.141 42.2824L158.493 14.2229C155.77 11.5544 152.198 10.2177 148.629 10.2177ZM37.5767 113.626L11.0619 139.601C6.87224 144.959 7.2215 152.616 12.2252 157.518L40.8729 185.601C45.6679 190.299 53.0944 190.861 58.5171 187.288C58.9747 186.65 59.462 186.031 60.044 185.461L82.1478 163.795L46.932 163.795C41.7686 163.795 37.5767 159.768 37.5767 154.778L37.5767 113.626Z" fill="#7289da" fill-rule="nonzero" opacity="1" stroke="none"/>
</g>
<g id="图层-2">
<path d="M101.093 11.547C83.2182 11.547 67.0039 18.7639 55.29 30.4778C43.5761 42.1916 36.3592 58.4059 36.3592 76.2807C36.3591 94.1555 43.5761 110.29 55.29 122.003C67.0038 133.717 83.2181 188.181 101.093 188.181C118.968 188.181 135.102 133.717 146.816 122.003C158.53 110.29 165.827 94.1555 165.827 76.2807C165.827 58.4059 158.53 42.1917 146.816 30.4778C135.102 18.7639 118.968 11.547 101.093 11.547ZM73.4988 57.8312C76.5852 57.8312 79.5166 58.2415 82.1621 59.1146L82.1621 65.1308C78.9875 64.2576 76.0561 63.8473 73.4988 63.8473C69.8834 63.8473 67.3775 64.8141 65.8784 66.7351C64.3793 68.6561 63.6324 72.1648 63.6324 77.4037C63.6324 82.3982 64.307 85.949 65.718 87.9922C67.1289 90.0354 69.205 91.0403 71.8945 91.0403C73.085 91.0403 74.0971 90.9083 75.0229 90.559L75.0229 79.2487L68.6057 79.2487L68.6057 73.2325L83.7664 73.2325L83.7664 94.9709C80.1068 96.3679 76.1714 97.0565 71.8945 97.0565C60.4308 97.0565 54.6482 90.5011 54.6482 77.4037C54.6482 70.5582 56.2364 65.6096 59.3007 62.4837C62.3651 59.3578 67.0615 57.8312 73.4988 57.8312ZM135.666 57.8312C141.001 57.8312 144.894 59.229 147.297 62.1628C149.7 65.0966 150.907 70.1739 150.907 77.4037C150.907 84.6335 149.7 89.7108 147.297 92.6446C144.894 95.5785 141.001 97.0565 135.666 97.0565C130.331 97.0565 126.518 95.5785 124.115 92.6446C121.712 89.7108 120.505 84.6335 120.505 77.4037C120.505 70.174 121.654 65.0966 124.035 62.1628C126.46 59.229 130.331 57.8312 135.666 57.8312ZM90.7451 58.3125L115.211 58.3125L115.211 64.5693L99.9699 64.5693L99.9699 73.2325L114.569 73.2325L114.569 79.2487L99.9699 79.2487L99.9699 90.2382L115.211 90.2382L115.211 96.5752L90.7451 96.5752L90.7451 58.3125ZM135.666 64.0078C133.373 64.0078 131.787 64.9468 130.773 66.8153C129.758 68.6839 129.249 72.1648 129.248 77.4037C129.248 82.6427 129.758 86.2666 130.773 88.1526C131.787 90.0037 133.373 90.8799 135.666 90.8799C137.958 90.8799 139.625 89.9409 140.639 88.0724C141.653 86.2038 142.163 82.6427 142.163 77.4037C142.163 72.1648 141.653 68.6839 140.639 66.8153C139.625 64.9467 137.958 64.0078 135.666 64.0078Z" fill="#ffffff" fill-rule="nonzero" opacity="1" stroke="none"/>
</g>
</svg>
