<?xml version="1.0" encoding="UTF-8" standalone="no"?>
<!DOCTYPE svg PUBLIC "-//W3C//DTD SVG 1.1//EN" "http://www.w3.org/Graphics/SVG/1.1/DTD/svg11.dtd">
<!-- Created with Vectornator (http://vectornator.io/) -->
<svg height="100%" stroke-miterlimit="10" style="fill-rule:nonzero;clip-rule:evenodd;stroke-linecap:round;stroke-linejoin:round;" version="1.1" viewBox="0 0 38.4657 40.9599" width="100%" xml:space="preserve" xmlns="http://www.w3.org/2000/svg" xmlns:xlink="http://www.w3.org/1999/xlink">
<defs/>
<g id="Untitled">
<g opacity="1">
<path d="M23.2434 9.73304C23.8339 9.20992 24.455 8.7224 25.1034 8.27305C26.9959 7.10541 29.414 7.23289 31.1734 8.59305C32.6181 9.70666 33.5293 11.3753 33.6852 13.1928C33.8411 15.0102 33.2274 16.8097 31.9934 18.153C30.9142 19.2004 29.4946 19.8251 27.9934 19.913C25.5034 20.113 22.9934 20.263 20.5234 20.433C18.9334 20.543 17.3334 20.693 15.7334 20.733C13.5813 20.7895 11.5114 19.9061 10.0634 18.313C7.05097 15.093 6.7772 10.1777 9.41336 6.64305C11.0917 4.41438 13.8419 3.26464 16.607 3.63567C19.3721 4.00671 21.7219 5.84078 22.7534 8.43304C22.9434 8.88304 23.0734 9.34304 23.2434 9.73304ZM12.9634 12.313C12.9634 12.673 13.0234 13.043 13.0934 13.403C13.1421 13.6726 13.2157 13.9371 13.3134 14.193C13.6841 15.4828 14.7361 16.4628 16.0489 16.7413C17.3617 17.0198 18.721 16.5512 19.5834 15.523C21.0738 13.8331 21.3117 11.3776 20.1734 9.43304C19.5694 8.32986 18.4361 7.61921 17.18 7.556C15.9239 7.49279 14.725 8.08607 14.0134 9.12304C13.3195 10.0406 12.9501 11.1627 12.9634 12.313ZM31.3834 13.553C31.3981 12.7789 31.1316 12.0257 30.6334 11.433C30.2528 10.9018 29.66 10.5623 29.0093 10.5028C28.3585 10.4433 27.714 10.6697 27.2434 11.123C25.9317 12.3565 25.7512 14.3766 26.8234 15.823C27.2004 16.3397 27.7779 16.6733 28.4137 16.7418C29.0496 16.8103 29.6849 16.6075 30.1634 16.183C30.9602 15.5464 31.4119 14.5726 31.3834 13.553ZM18.2434 34.433C18.8534 33.613 19.3934 32.823 19.9934 32.073C20.3312 31.664 20.5026 31.1427 20.4734 30.613L20.4734 28.833C20.5004 28.2441 20.2662 27.6733 19.8334 27.273C18.6034 26.033 17.3834 24.773 16.1434 23.533C15.9354 23.3827 15.8865 23.0934 16.0334 22.883C16.3409 22.3127 16.9354 21.956 17.5834 21.953C20.4134 21.703 23.2534 21.463 26.0834 21.173C27.5165 21.1042 28.9529 21.1711 30.3734 21.373C30.7034 21.373 31.0334 21.443 31.3734 21.493C32.1386 21.5667 32.7134 22.2248 32.6834 22.993L32.6834 24.123C32.6834 24.493 32.5334 24.693 32.1634 24.753L27.2434 25.673L26.3934 25.833C25.8438 25.9208 25.4285 26.3777 25.3934 26.933C25.3934 28.233 25.3434 29.533 25.3934 30.823C25.3707 31.0638 25.4655 31.3006 25.6479 31.4593C25.8304 31.6179 26.0781 31.6789 26.3134 31.623C27.0749 31.5174 27.8295 31.3671 28.5734 31.173C28.6834 31.173 28.8134 30.963 28.8334 30.833C28.8539 30.5467 28.8539 30.2593 28.8334 29.973L27.8934 30.153L27.0834 30.353C26.8134 30.413 26.6434 30.303 26.6434 30.003L26.6434 27.623C26.6323 27.494 26.6739 27.366 26.7587 27.2681C26.8434 27.1702 26.9641 27.1107 27.0934 27.103C28.8334 26.763 30.5734 26.433 32.3134 26.103C32.6034 26.043 32.6734 26.153 32.6734 26.413L32.6734 31.593C32.6105 32.5229 31.9137 33.2861 30.9934 33.433C28.1534 34.093 25.3134 34.753 22.4634 35.383C21.6304 35.5661 20.7613 35.4893 19.9734 35.163L18.2434 34.433Z" fill="#000" fill-rule="nonzero" opacity="1" stroke="none"/>
<path d="M19.2434 29.213C19.2484 29.1766 19.2484 29.1395 19.2434 29.103C19.1592 28.7929 19.024 28.4989 18.8434 28.233C17.5434 26.913 16.2234 25.613 14.8434 24.343C14.4853 23.9923 14.0399 23.7437 13.5534 23.623C11.4534 23.193 9.35336 22.803 7.23336 22.493C6.63942 22.3748 6.0239 22.5321 5.55947 22.9208C5.09504 23.3094 4.83171 23.8876 4.84336 24.493C4.84336 26.123 4.76336 30.733 4.76336 32.313C4.67659 33.6494 5.43627 34.8968 6.66336 35.433C8.60839 36.3006 10.6492 36.935 12.7434 37.323C13.6448 37.5546 14.595 37.1993 15.1234 36.433C16.1234 35.043 17.2034 33.733 18.2334 32.373C19.4634 30.703 19.2434 31.433 19.2434 29.213ZM12.9834 33.313C12.9851 33.6959 12.807 34.0573 12.5024 34.2892C12.1977 34.5211 11.8019 34.5966 11.4334 34.493L7.59336 33.433C7.14255 33.3063 6.82652 32.9011 6.81336 32.433L6.81336 25.983C6.81268 25.7062 6.93809 25.444 7.15411 25.2708C7.37013 25.0976 7.65325 25.0322 7.92336 25.093L12.0534 26.043C12.6269 26.1521 13.0447 26.6493 13.0534 27.233L12.9834 33.313Z" fill="#ffffff" fill-rule="nonzero" opacity="1" stroke="none"/>
</g>
</g>
</svg>
