<?xml version="1.0" encoding="UTF-8" standalone="no"?>
<!DOCTYPE svg PUBLIC "-//W3C//DTD SVG 1.1//EN" "http://www.w3.org/Graphics/SVG/1.1/DTD/svg11.dtd">
<!-- Created with Vectornator (http://vectornator.io/) -->
<svg height="100%" stroke-miterlimit="10" style="fill-rule:nonzero;clip-rule:evenodd;stroke-linecap:round;stroke-linejoin:round;" version="1.1" viewBox="0 0 24 24" width="100%" xml:space="preserve" xmlns="http://www.w3.org/2000/svg" xmlns:xlink="http://www.w3.org/1999/xlink">
<defs/>
<g id="Untitled">
<path d="M11.102 7.815L11.853 4.279C12.0829 3.19834 13.1454 2.50877 14.226 2.739L17.422 3.419C18.0278 2.7463 19.0098 2.56435 19.8164 2.97539C20.6229 3.38642 21.0528 4.28795 20.8645 5.17338C20.6762 6.05881 19.9166 6.70736 19.0126 6.7546C18.1086 6.80184 17.2856 6.23599 17.006 5.375L13.81 4.695L13.144 7.83C14.928 7.967 16.701 8.56 18.307 9.53C19.2775 8.99042 20.4586 8.99393 21.4258 9.53926C22.393 10.0846 23.0074 11.0934 23.048 12.203L23.048 12.224C23.0635 13.2153 22.6175 14.1576 21.841 14.774C21.8392 14.8151 21.8366 14.8561 21.833 14.897C21.833 18.895 17.383 21.927 12.034 21.927C6.702 21.927 2.326 18.903 2.329 14.974C2.32464 14.9137 2.3213 14.8534 2.319 14.793C0.978983 13.7872 0.644725 11.9165 1.55351 10.5088C2.46229 9.10119 4.30476 8.63579 5.773 9.443C7.3881 8.46964 9.21868 7.9104 11.102 7.815ZM20.388 13.341C20.796 13.138 21.052 12.721 21.049 12.266C21.0277 11.7987 20.7351 11.387 20.3007 11.2133C19.8664 11.0397 19.3706 11.1361 19.033 11.46L18.448 12.02L17.778 11.565C16.163 10.467 14.326 9.84 12.548 9.801L11.542 9.801C9.667 9.83 7.891 10.401 6.305 11.476L5.642 11.926L5.058 11.376C4.71386 11.053 4.21153 10.9634 3.77698 11.1476C3.34242 11.3319 3.05749 11.7551 3.05035 12.2271C3.04321 12.699 3.31521 13.1307 3.744 13.328L4.377 13.618L4.323 14.313C4.31 14.483 4.31 14.652 4.326 14.897C4.326 17.607 7.682 19.927 12.034 19.927C16.405 19.927 19.833 17.591 19.836 14.821C19.849 14.6519 19.849 14.4821 19.836 14.313L19.784 13.641C19.784 13.641 20.388 13.341 20.388 13.341ZM7 13.5C7 12.6716 7.67157 12 8.5 12C9.32843 12 10 12.6716 10 13.5C10 14.3284 9.32843 15 8.5 15C7.67157 15 7 14.3284 7 13.5ZM14 13.5C14 12.6716 14.6716 12 15.5 12C16.3284 12 17 12.6716 17 13.5C17 14.3284 16.3284 15 15.5 15C14.6716 15 14 14.3284 14 13.5ZM12.016 18.603C10.619 18.603 9.249 18.233 8.134 17.393C7.99442 17.2245 8.006 16.9774 8.16072 16.8227C8.31544 16.668 8.56249 16.6564 8.731 16.796C9.676 17.489 10.854 17.786 12 17.786C13.146 17.786 14.33 17.511 15.284 16.827C15.3963 16.7175 15.5585 16.6762 15.7095 16.7187C15.8605 16.7611 15.9773 16.881 16.016 17.033C16.0489 17.185 16.0044 17.3435 15.897 17.456C15.213 18.253 13.413 18.603 12.016 18.603Z" fill="#000" fill-rule="nonzero" opacity="1" stroke="none"/>
</g>
</svg>
