<?xml version="1.0" encoding="UTF-8" standalone="no"?>
<!DOCTYPE svg PUBLIC "-//W3C//DTD SVG 1.1//EN" "http://www.w3.org/Graphics/SVG/1.1/DTD/svg11.dtd">
<!-- Created with Vectornator (http://vectornator.io/) -->
<svg height="100%" stroke-miterlimit="10" style="fill-rule:nonzero;clip-rule:evenodd;stroke-linecap:round;stroke-linejoin:round;" version="1.1" viewBox="0 0 32 32" width="100%" xml:space="preserve" xmlns="http://www.w3.org/2000/svg" xmlns:xlink="http://www.w3.org/1999/xlink">
<defs/>
<g id="Untitled">
<path d="M16.656 1.029C18.293 1.004 19.918 1.017 21.542 1.004C21.596 3.035 22.42 4.863 23.731 6.217L23.729 6.215C25.14 7.486 26.976 8.31 29 8.45L29.028 8.452L29.028 13.488C27.116 13.44 25.318 12.999 23.697 12.241L23.779 12.275C22.995 11.898 22.332 11.511 21.702 11.079L21.754 11.113C21.742 14.762 21.766 18.411 21.729 22.047C21.626 23.9 21.01 25.59 20.022 27.001L20.042 26.97C18.39 29.336 15.714 30.889 12.671 30.981L12.657 30.981C12.534 30.987 12.389 30.99 12.243 30.99C10.513 30.99 8.896 30.508 7.518 29.671L7.558 29.694C5.05 28.185 3.32 25.603 3 22.6L2.996 22.559C2.971 21.934 2.959 21.309 2.984 20.697C3.474 15.918 7.478 12.221 12.345 12.221C12.892 12.221 13.428 12.268 13.949 12.357L13.893 12.349C13.918 14.198 13.843 16.048 13.843 17.897C13.42 17.744 12.932 17.655 12.423 17.655C10.555 17.655 8.966 18.849 8.378 20.516L8.369 20.546C8.236 20.973 8.159 21.464 8.159 21.972C8.159 22.178 8.172 22.382 8.196 22.582L8.194 22.558C8.526 24.604 10.28 26.148 12.395 26.148C12.456 26.148 12.516 26.147 12.576 26.144L12.567 26.144C14.03 26.1 15.3 25.313 16.018 24.15L16.028 24.132C16.295 23.76 16.478 23.31 16.539 22.821L16.54 22.807C16.665 20.57 16.615 18.346 16.627 16.109C16.639 11.073 16.615 6.049 16.652 1.026L16.656 1.029Z" fill="#000" fill-rule="nonzero" opacity="1" stroke="none"/>
</g>
</svg>
