<?xml version="1.0" encoding="UTF-8" standalone="no"?>
<!DOCTYPE svg PUBLIC "-//W3C//DTD SVG 1.1//EN" "http://www.w3.org/Graphics/SVG/1.1/DTD/svg11.dtd">
<!-- Created with Vectornator (http://vectornator.io/) -->
<svg height="100%" stroke-miterlimit="10" style="fill-rule:nonzero;clip-rule:evenodd;stroke-linecap:round;stroke-linejoin:round;" version="1.1" viewBox="0 0 24 24" width="100%" xml:space="preserve" xmlns="http://www.w3.org/2000/svg" xmlns:xlink="http://www.w3.org/1999/xlink">
<defs/>
<g id="Untitled">
<path d="M22.162 5.656C21.3986 5.99369 20.589 6.21547 19.76 6.314C20.6338 5.79143 21.2877 4.96901 21.6 4C20.78 4.488 19.881 4.83 18.944 5.015C17.6498 3.63032 15.5863 3.28909 13.9153 4.18345C12.2443 5.07782 11.3836 6.98415 11.818 8.829C8.45502 8.66044 5.32174 7.07199 3.198 4.459C2.82629 5.09745 2.63096 5.82323 2.632 6.562C2.632 8.012 3.37 9.293 4.492 10.043C3.82801 10.0221 3.17863 9.84278 2.598 9.52L2.598 9.572C2.59841 11.563 4.00151 13.2781 5.953 13.673C5.33662 13.84 4.69031 13.8647 4.063 13.745C4.61013 15.4492 6.18045 16.6168 7.97 16.65C6.21794 18.026 3.99074 18.6491 1.779 18.382C3.6907 19.6114 5.9161 20.2641 8.189 20.262C15.882 20.262 20.089 13.889 20.089 8.362C20.089 8.182 20.084 8 20.076 7.822C20.8949 7.23017 21.6016 6.49702 22.163 5.657L22.162 5.656Z" fill="#ffffff" fill-rule="nonzero" opacity="1" stroke="none"/>
</g>
</svg>
