<?xml version="1.0" encoding="UTF-8" standalone="no"?>
<!DOCTYPE svg PUBLIC "-//W3C//DTD SVG 1.1//EN" "http://www.w3.org/Graphics/SVG/1.1/DTD/svg11.dtd">
<!-- Created with Vectornator (http://vectornator.io/) -->
<svg height="100%" stroke-miterlimit="10" style="fill-rule:nonzero;clip-rule:evenodd;stroke-linecap:round;stroke-linejoin:round;" version="1.1" viewBox="0 0 1024 1024" width="100%" xml:space="preserve" xmlns="http://www.w3.org/2000/svg" xmlns:xlink="http://www.w3.org/1999/xlink">
<defs/>
<g id="Untitled">
<path d="M512 64C264.6 64 64 264.6 64 512C64 759.4 264.6 960 512 960C759.4 960 960 759.4 960 512C960 264.6 759.4 64 512 64ZM467.6 736C353.1 736 236 680.4 236 588.9C236 541.1 266.2 485.8 318.3 433.6C387.8 364 468.9 332.2 499.4 362.8C512.9 376.3 514.2 399.6 505.5 427.4C501 441.4 518.6 433.7 518.6 433.7C574.8 410.1 623.8 408.7 641.7 434.4C651.3 448.1 650.3 467.2 641.5 489.5C637.4 499.7 642.8 501.3 650.5 503.6C682.2 513.4 717.4 537.2 717.4 579.1C717.6 648.6 617.7 736 467.6 736ZM674.9 445.2C678.753 433.363 676.01 420.369 667.7 411.1C659.383 401.858 646.754 397.775 634.6 400.4C624.742 402.499 615.049 396.208 612.95 386.35C610.851 376.492 617.142 366.799 627 364.7C651.1 359.6 677.1 367 694.7 386.6C712.4 406.2 717.1 432.9 709.6 456.4C708.127 460.997 704.882 464.817 700.583 467.013C696.285 469.209 691.288 469.6 686.7 468.1C682.093 466.636 678.258 463.398 676.044 459.101C673.83 454.804 673.418 449.801 674.9 445.2ZM780.9 479.5C780.9 479.5 780.9 479.6 780.9 479.5C779.202 484.853 775.441 489.309 770.448 491.88C765.456 494.452 759.644 494.927 754.3 493.2C743.172 489.582 737.084 477.628 740.7 466.5C751.7 432.3 744.7 393.3 719 364.7C694.127 337.112 656.433 324.878 620.1 332.6C614.609 333.773 608.878 332.714 604.169 329.656C599.46 326.598 596.161 321.793 595 316.3C593.805 310.822 594.842 305.094 597.883 300.383C600.923 295.672 605.716 292.367 611.2 291.2C660.6 280.7 714 296 750.3 336.3C786.6 376.5 796.4 431.4 780.9 479.5ZM446.4 485.6C355 494.6 285.7 550.7 291.7 610.8C297.6 670.9 376.5 712.3 467.9 703.3C559.3 694.2 628.6 638.2 622.6 578C616.7 517.9 537.8 476.5 446.4 485.6ZM526.6 627.3C507.9 669.6 454.3 692.1 408.8 677.4C364.9 663.2 346.3 619.7 365.5 580.6C384.4 542.2 433.5 520.5 477 531.8C522 543.5 545 586 526.6 627.3ZM433.6 595.1C419.4 589.2 401.2 595.3 392.4 609C383.6 622.8 387.7 639.2 401.7 645.6C416 652.1 434.9 645.9 443.7 631.8C452.5 617.5 447.9 601.2 433.6 595.1ZM468.5 580.6C463.1 578.4 456.3 581.1 453.1 586.4C450 591.8 451.7 597.9 457.2 600.2C462.7 602.5 469.8 599.9 473 594.4C476 588.8 474 582.6 468.5 580.6Z" fill="#ffffff" fill-rule="nonzero" opacity="1" stroke="none"/>
</g>
</svg>
