<?xml version="1.0" encoding="UTF-8" standalone="no"?>
<!DOCTYPE svg PUBLIC "-//W3C//DTD SVG 1.1//EN" "http://www.w3.org/Graphics/SVG/1.1/DTD/svg11.dtd">
<!-- Created with Vectornator (http://vectornator.io/) -->
<svg height="100%" stroke-miterlimit="10" style="fill-rule:nonzero;clip-rule:evenodd;stroke-linecap:round;stroke-linejoin:round;" version="1.1" viewBox="0 0 24 24" width="100%" xml:space="preserve" xmlns="http://www.w3.org/2000/svg" xmlns:xlink="http://www.w3.org/1999/xlink">
<defs/>
<g id="Untitled">
<path d="M12.3593 17.9707L10.6713 19.0447L8.54035 15.6947C8.10035 17.0967 7.36835 18.3597 6.40135 19.5197C5.99935 20.0027 5.58135 20.4377 5.10035 20.8947C4.94535 21.0417 4.32535 21.6117 4.22235 21.7147L2.80835 20.3007C2.94735 20.1617 3.59535 19.5657 3.72335 19.4447C4.15335 19.0367 4.51835 18.6547 4.86535 18.2387C6.13135 16.7207 6.89535 15.0287 7.00235 13.0077L3.01535 13.0077L3.01535 11.0077L7.01535 11.0077L7.01535 7.00767L6.14735 7.00767C5.45835 8.27367 4.58935 9.22967 3.52935 9.86467L2.50135 8.15067C3.89635 7.31267 4.92635 5.54667 5.53935 2.79067L7.49135 3.22467C7.35135 3.85767 7.18835 4.45167 7.00235 5.00767L11.5153 5.00767L11.5153 7.00767L9.01535 7.00767L9.01535 11.0077L11.5153 11.0077L11.5153 13.0077L9.20035 13.0077C9.20035 13.0077 12.3593 17.9707 12.3593 17.9707ZM16.1973 17.9007L17.3133 17.0077L19.0153 17.0077L19.0153 7.00767L15.0153 7.00767L15.0153 17.0077L15.7513 17.0077C15.7513 17.0077 16.1973 17.9007 16.1973 17.9007ZM13.0153 5.00767L21.0153 5.00767L21.0153 19.0077L18.0153 19.0077L15.5153 21.0077L14.5153 19.0077L13.0153 19.0077L13.0153 5.00767Z" fill="#ffffff" fill-rule="nonzero" opacity="1" stroke="none"/>
</g>
</svg>
